<svg width="203" height="31" viewBox="0 0 203 31" fill="none" xmlns="http://www.w3.org/2000/svg">
<path d="M15.5 31C24.0604 31 31 24.0604 31 15.5C31 6.93959 24.0604 0 15.5 0C6.93959 0 0 6.93959 0 15.5C0 24.0604 6.93959 31 15.5 31Z" fill="#090246"/>
<path d="M15.4609 29.3024C23.0189 29.3024 29.1458 23.1755 29.1458 15.6175C29.1458 8.05955 23.0189 1.9326 15.4609 1.9326C7.90295 1.9326 1.776 8.05955 1.776 15.6175C1.776 23.1755 7.90295 29.3024 15.4609 29.3024Z" fill="white"/>
<path d="M15.3041 24.9671C20.3957 24.9671 24.5232 20.8396 24.5232 15.7481C24.5232 10.6566 20.3957 6.52907 15.3041 6.52907C10.2126 6.52907 6.08508 10.6566 6.08508 15.7481C6.08508 20.8396 10.2126 24.9671 15.3041 24.9671Z" fill="#090246"/>
<path fill-rule="evenodd" clip-rule="evenodd" d="M19.5872 10.6424C19.5872 12.0931 18.8503 13.3716 17.7303 14.1241C17.5471 14.2133 17.3706 14.3143 17.2018 14.426C16.6549 14.6876 16.0423 14.834 15.3956 14.834C13.0806 14.834 11.2039 12.9574 11.2039 10.6424C11.2039 8.32738 13.0806 6.45072 15.3956 6.45072C17.7106 6.45072 19.5872 8.32738 19.5872 10.6424ZM20.0312 10.6424C20.0312 11.8382 19.5784 12.9283 18.8349 13.7505C19.1329 13.6904 19.4413 13.6588 19.757 13.6588C22.3172 13.6588 24.3926 15.7342 24.3926 18.2944C24.3926 20.8546 22.3172 22.9301 19.757 22.9301C17.6312 22.9301 15.8395 21.4991 15.2928 19.5479C14.7206 21.459 12.9486 22.8517 10.8513 22.8517C8.29113 22.8517 6.2157 20.7763 6.2157 18.2161C6.2157 15.6559 8.29113 13.5805 10.8513 13.5805C11.2169 13.5805 11.5725 13.6228 11.9136 13.7027C11.1955 12.8863 10.7599 11.8152 10.7599 10.6424C10.7599 8.08218 12.8354 6.00674 15.3956 6.00674C17.9558 6.00674 20.0312 8.08218 20.0312 10.6424ZM17.9507 14.5108C17.782 14.6225 17.6055 14.7235 17.4222 14.8127C16.3023 15.5652 15.5653 16.8438 15.5653 18.2944C15.5653 20.6094 17.442 22.4861 19.757 22.4861C22.072 22.4861 23.9486 20.6094 23.9486 18.2944C23.9486 15.9794 22.072 14.1028 19.757 14.1028C19.1102 14.1028 18.4977 14.2493 17.9507 14.5108ZM15.043 18.2161C15.043 20.5311 13.1663 22.4078 10.8513 22.4078C8.53634 22.4078 6.65967 20.5311 6.65967 18.2161C6.65967 15.9011 8.53634 14.0244 10.8513 14.0244C13.1663 14.0244 15.043 15.9011 15.043 18.2161Z" fill="white"/>
<path fill-rule="evenodd" clip-rule="evenodd" d="M7.21135 18.9552C7.27228 18.8942 7.44378 18.8089 7.64227 18.9552C7.89037 19.138 8.98725 19.5167 10.1755 19.2686C10.5928 19.1814 10.6374 19.0759 10.6696 18.9996C10.6703 18.9978 10.671 18.9961 10.6718 18.9943C10.7043 18.9178 10.6433 18.8504 10.5672 18.7663C10.5073 18.7002 10.4381 18.6237 10.3975 18.5242C10.3658 18.4464 10.2308 18.0817 10.2408 17.8191C10.2763 16.8923 10.542 15.2141 10.8676 14.7766C11.2855 14.2151 11.6381 17.0487 11.5075 17.8191C11.449 18.164 11.3617 18.3938 11.2937 18.5729C11.2099 18.7937 11.1553 18.9374 11.2202 19.1249C11.3377 19.4644 14.0538 19.3861 14.2497 19.1249C14.3875 18.9412 14.5488 19.0133 14.6361 19.0925C13.9516 20.4663 12.5329 21.4101 10.8937 21.4101C9.23713 21.4101 7.80568 20.4461 7.12976 19.0484C7.17983 19.0158 7.21135 18.9839 7.21135 18.9552Z" fill="white"/>
<path d="M19.8614 21.6243C21.8014 21.6243 23.374 20.075 23.374 18.1639C23.374 16.2527 21.8014 14.7035 19.8614 14.7035C17.9214 14.7035 16.3488 16.2527 16.3488 18.1639C16.3488 20.075 17.9214 21.6243 19.8614 21.6243Z" fill="white"/>
<path fill-rule="evenodd" clip-rule="evenodd" d="M20.1576 15.3158L20.6782 15.3666L20.8567 14.8443C20.5596 14.758 20.2461 14.7094 19.9219 14.704L20.1576 15.3158ZM18.5076 14.9698C18.8219 14.8404 19.1594 14.7546 19.5123 14.7203L19.4118 15.4976L18.8735 15.5519L18.5076 14.9698ZM17.2055 15.8991C17.4183 15.6571 17.6646 15.4445 17.9373 15.2683L18.1641 15.9098L17.7083 16.2013L17.2055 15.8991ZM16.5764 16.9357C16.6486 16.7485 16.7368 16.569 16.8393 16.399L17.1623 16.5878L17.047 16.91L16.5764 16.9357ZM16.3544 17.9667C16.3669 17.7474 16.4001 17.5335 16.4522 17.327L16.9402 17.5135L16.879 17.8502L16.3544 17.9667ZM16.5007 19.1737C16.4278 18.9379 16.3797 18.6913 16.3595 18.4371L16.8859 18.4766L16.9414 18.8993L16.5007 19.1737ZM17.1999 20.4222C17.0245 20.2218 16.872 20.0013 16.7464 19.7647L17.3086 19.6811L17.4758 20.0733L17.1999 20.4222ZM18.3654 21.2957C18.1038 21.1742 17.86 21.0219 17.6386 20.8434L18.1126 20.3935L18.4995 20.6692L18.3654 21.2957ZM19.591 21.6142C19.3334 21.5949 19.0835 21.5482 18.8445 21.477L19.0969 20.9526L19.4854 21.0488L19.591 21.6142ZM21.1666 21.3775C20.862 21.4977 20.5364 21.577 20.1966 21.6087L20.1986 20.8786L20.7123 20.7702L21.1666 21.3775ZM22.5624 20.3763C22.3265 20.6555 22.0467 20.8976 21.7336 21.0923L21.5968 20.4882L22.0189 20.1793L22.5624 20.3763ZM23.1975 19.25C23.0882 19.5759 22.9311 19.8804 22.7344 20.1554L22.4313 19.6877L22.721 19.2521L23.1975 19.25ZM23.3731 18.0815C23.3737 18.1089 23.374 18.1364 23.374 18.1639C23.374 18.471 23.3334 18.7688 23.2572 19.0524L22.862 18.8086L22.9369 18.2908L23.3731 18.0815ZM23.1672 16.9911C23.2683 17.2677 23.3347 17.5607 23.3611 17.8649L22.8285 17.7453L22.8032 17.2228L23.1672 16.9911ZM22.4689 15.8452C22.6781 16.0734 22.8569 16.3292 22.9989 16.6063L22.4524 16.7325L22.2033 16.2725L22.4689 15.8452ZM21.238 14.9793C21.5398 15.1061 21.8198 15.2732 22.0712 15.4739L21.6893 15.9243L21.2245 15.6843L21.238 14.9793Z" fill="#090246"/>
<path d="M19.8614 19.4044C20.5465 19.4044 21.1019 18.849 21.1019 18.1639C21.1019 17.4787 20.5465 16.9233 19.8614 16.9233C19.1762 16.9233 18.6208 17.4787 18.6208 18.1639C18.6208 18.849 19.1762 19.4044 19.8614 19.4044Z" fill="#090246"/>
<path d="M12.3984 11.674H11.9902V9.31595H12.3984V11.674ZM14.1345 11.0667C14.1345 10.963 14.0978 10.8831 14.0244 10.827C13.952 10.7708 13.8208 10.7141 13.6308 10.6569C13.4408 10.5997 13.2896 10.536 13.1773 10.4658C12.9625 10.3309 12.855 10.1549 12.855 9.93783C12.855 9.74781 12.9322 9.59127 13.0866 9.46819C13.2421 9.3451 13.4435 9.28357 13.6907 9.28357C13.8548 9.28357 14.0011 9.31379 14.1296 9.37424C14.2581 9.4347 14.359 9.5211 14.4325 9.63337C14.5059 9.74457 14.5426 9.86821 14.5426 10.0042H14.1345C14.1345 9.88116 14.0956 9.78508 14.0179 9.71598C13.9412 9.6458 13.8311 9.6107 13.6875 9.6107C13.5536 9.6107 13.4494 9.63932 13.3749 9.69655C13.3015 9.75377 13.2648 9.83366 13.2648 9.93621C13.2648 10.0226 13.3047 10.0949 13.3846 10.1532C13.4645 10.2105 13.5963 10.2666 13.7798 10.3217C13.9633 10.3756 14.1107 10.4377 14.2219 10.5079C14.3331 10.577 14.4146 10.6569 14.4665 10.7476C14.5183 10.8372 14.5442 10.9425 14.5442 11.0634C14.5442 11.2599 14.4686 11.4165 14.3175 11.5331C14.1674 11.6486 13.9633 11.7063 13.7053 11.7063C13.5347 11.7063 13.3776 11.675 13.234 11.6124C13.0915 11.5487 12.9803 11.4613 12.9004 11.3501C12.8216 11.2389 12.7822 11.1093 12.7822 10.9614H13.1919C13.1919 11.0953 13.2362 11.1989 13.3247 11.2723C13.4133 11.3457 13.5401 11.3825 13.7053 11.3825C13.8478 11.3825 13.9547 11.3538 14.026 11.2966C14.0983 11.2383 14.1345 11.1617 14.1345 11.0667ZM16.6075 9.64632H15.8722V11.674H15.4657V9.64632H14.7369V9.31595H16.6075V9.64632ZM18.2966 10.6213H17.3282V11.3468H18.4602V11.674H16.9184V9.31595H18.4489V9.64632H17.3282V10.2974H18.2966V10.6213Z" fill="white"/>
<path fill-rule="evenodd" clip-rule="evenodd" d="M15.2257 4.04191L14.7162 4.04308L14.7195 5.44806L14.4378 5.44871L14.4346 4.04374L13.9296 4.04491L13.9291 3.81598L15.2252 3.81297L15.2257 4.04191ZM11.7317 5.33667L12.037 5.25349L12.5186 5.7748L12.812 5.69488L12.8082 5.68081L12.2751 5.12001C12.3557 5.05699 12.4116 4.98322 12.4428 4.89873C12.4746 4.8133 12.4761 4.7179 12.4474 4.6125C12.4054 4.45804 12.3237 4.35347 12.2026 4.29887C12.0815 4.24423 11.93 4.2417 11.7481 4.29124L11.1938 4.44224L11.6232 6.0187L11.8971 5.94409L11.7317 5.33667ZM11.9533 5.0402L11.6718 5.11688L11.5279 4.5885L11.817 4.50975C11.9127 4.48523 11.9906 4.48959 12.0508 4.52281C12.1118 4.55585 12.1537 4.61459 12.1767 4.69905C12.1988 4.77988 12.1902 4.85083 12.151 4.91192C12.1116 4.97227 12.0457 5.01503 11.9533 5.0402ZM10.6646 5.63482C10.7255 5.78287 10.7535 5.92345 10.7484 6.05662C10.7431 6.18906 10.7051 6.30504 10.6344 6.40452C10.5641 6.50303 10.4671 6.5778 10.3433 6.62878C10.2208 6.67918 10.0992 6.69443 9.97862 6.67453C9.85835 6.65366 9.74916 6.59869 9.65101 6.50966C9.55355 6.42034 9.47473 6.30352 9.4145 6.15923L9.37946 6.07414C9.31879 5.9268 9.29118 5.78606 9.29664 5.65192C9.3028 5.51753 9.34101 5.40108 9.41129 5.30254C9.48199 5.20306 9.57888 5.12798 9.70202 5.07726C9.82516 5.02657 9.94636 5.01145 10.0656 5.03192C10.1853 5.05143 10.294 5.10617 10.3918 5.19619C10.4892 5.28551 10.5686 5.40371 10.63 5.55077L10.6646 5.63482ZM10.3696 5.66407C10.3007 5.49664 10.216 5.38141 10.1156 5.31839C10.0159 5.25506 9.90797 5.24733 9.79175 5.29518C9.6783 5.3419 9.60776 5.42312 9.58019 5.53884C9.553 5.65359 9.57217 5.79253 9.63772 5.95568L9.6736 6.04283C9.74198 6.20888 9.82698 6.32395 9.92863 6.38809C10.031 6.45194 10.1395 6.46022 10.2544 6.41292C10.3706 6.36508 10.4416 6.28407 10.4674 6.16989C10.4939 6.05542 10.4721 5.91309 10.4021 5.74291L10.3696 5.66407ZM8.34107 7.14969L8.85588 6.74053L8.71485 6.56307L8.20005 6.9722L7.89772 6.59182L8.48808 6.12262L8.34567 5.94341L7.53301 6.58924L8.54959 7.86838L8.77186 7.69173L8.34107 7.14969ZM6.45963 8.68765L6.0961 7.90745L6.29434 7.66368L6.74981 8.73994L7.21646 9.11943L7.03662 9.34058L6.56997 8.96106L5.42277 8.73544L5.62172 8.49079L6.45963 8.68765ZM5.0345 9.75638L5.28654 9.31363L5.08759 9.20037L4.44636 10.3268L4.64531 10.44L4.89514 10.0012L6.11613 10.6963L6.25548 10.4515L5.0345 9.75638ZM4.92303 11.3577L4.72993 12.0004L5.21141 12.145L5.4371 11.3938L5.65421 11.459L5.34682 12.4822L3.78201 12.012L4.08713 10.9964L4.30637 11.0623L4.08295 11.806L4.51499 11.9358L4.70807 11.2931L4.92303 11.3577ZM5.10796 13.2938L5.1446 13.0134L3.52445 12.8017L3.48784 13.0821L5.10796 13.2938ZM4.28543 13.8333C4.46015 13.8446 4.59817 13.9049 4.69945 14.0141C4.79997 14.1234 4.85301 14.2712 4.85852 14.4574C4.86236 14.5875 4.8351 14.7032 4.77673 14.8045C4.7176 14.905 4.63199 14.9839 4.5199 15.0411C4.40784 15.0983 4.27668 15.1302 4.12643 15.137L3.97389 15.1415C3.81985 15.146 3.68332 15.1227 3.56431 15.0716C3.44527 15.0205 3.35248 14.9451 3.28591 14.8452C3.21931 14.7447 3.18403 14.6275 3.18006 14.4936C3.17473 14.3134 3.21942 14.1669 3.31411 14.054C3.40884 13.9412 3.54527 13.8732 3.72346 13.8499L3.73184 14.1326C3.61484 14.1496 3.53135 14.1865 3.48139 14.2433C3.43067 14.2995 3.40688 14.3806 3.41001 14.4868C3.41367 14.6102 3.46172 14.7038 3.55417 14.7677C3.64587 14.8308 3.77885 14.8606 3.95313 14.8569L4.09781 14.8526C4.2743 14.8474 4.40797 14.812 4.49885 14.7465C4.58968 14.6802 4.6333 14.5861 4.62969 14.4642C4.6264 14.3527 4.59885 14.2697 4.54709 14.2151C4.49533 14.1605 4.41089 14.1275 4.29381 14.116L4.28543 13.8333ZM4.41541 15.8915C4.29021 15.8459 4.1478 15.8295 3.9882 15.8422L3.8976 15.8494C3.73882 15.8628 3.60197 15.9022 3.48711 15.9676C3.37146 16.0331 3.28606 16.1198 3.23086 16.2278C3.17484 16.335 3.15211 16.455 3.16267 16.5878C3.17322 16.7205 3.21503 16.8358 3.2881 16.9335C3.36037 17.0306 3.45953 17.1026 3.58559 17.1497C3.7116 17.1959 3.85401 17.2127 4.01288 17.2001L4.1046 17.1928C4.26041 17.1797 4.39574 17.1404 4.51063 17.075C4.62544 17.0088 4.7112 16.9217 4.7679 16.8136C4.82379 16.7048 4.84648 16.5845 4.83599 16.4525C4.82538 16.319 4.78394 16.2037 4.71167 16.1066C4.63863 16.0089 4.53985 15.9372 4.41541 15.8915ZM3.51887 16.2679C3.60959 16.1916 3.74521 16.1463 3.92568 16.132L4.01071 16.1252C4.19418 16.1106 4.33633 16.1335 4.43719 16.1938C4.53797 16.2533 4.59334 16.3457 4.60332 16.471C4.61316 16.5948 4.57203 16.6956 4.47989 16.7735C4.38773 16.8506 4.25213 16.8963 4.07316 16.9105L3.97919 16.918C3.80382 16.9304 3.66566 16.9061 3.56475 16.8451C3.46303 16.7834 3.40732 16.6914 3.39758 16.5691C3.38763 16.4438 3.42806 16.3434 3.51887 16.2679ZM4.52142 18.0234C4.45464 18.0498 4.41254 18.0939 4.39512 18.1555C4.37744 18.2165 4.37441 18.3154 4.38606 18.4524C4.3977 18.5894 4.39525 18.7031 4.37872 18.7933C4.34662 18.9662 4.2607 19.0803 4.1209 19.1357C3.99849 19.1842 3.87794 19.1745 3.75924 19.1064C3.64025 19.0377 3.54921 18.9237 3.48609 18.7644C3.4442 18.6587 3.42631 18.5568 3.43247 18.4586C3.43861 18.3604 3.46849 18.2733 3.52208 18.1973C3.57496 18.1217 3.64522 18.0664 3.73286 18.0317L3.83704 18.2946C3.75775 18.326 3.70578 18.3756 3.68113 18.4433C3.65548 18.5106 3.66099 18.5905 3.69766 18.683C3.73182 18.7693 3.77687 18.8291 3.83273 18.8624C3.88833 18.8951 3.94918 18.8984 4.01526 18.8722C4.07088 18.8501 4.10729 18.806 4.12445 18.7396C4.1409 18.6735 4.14346 18.5743 4.13207 18.442C4.11998 18.31 4.12236 18.1992 4.13918 18.1097C4.15529 18.0204 4.18595 17.9475 4.23113 17.891C4.27564 17.8347 4.33683 17.7912 4.41473 17.7603C4.54129 17.7101 4.66145 17.7188 4.77513 17.7864C4.88788 17.8536 4.97717 17.9703 5.04306 18.1365C5.0866 18.2464 5.10655 18.3556 5.10287 18.4641C5.09822 18.5722 5.07027 18.6661 5.01903 18.746C4.96751 18.8251 4.89412 18.8836 4.79882 18.9214L4.69423 18.6574C4.78046 18.6232 4.83593 18.5683 4.86064 18.4925C4.88532 18.4167 4.87657 18.3256 4.83442 18.2192C4.79801 18.1274 4.75231 18.0659 4.69726 18.0346C4.64124 18.0028 4.58261 17.9991 4.52142 18.0234ZM5.816 20.3694L5.68884 20.1155L4.22795 20.8472L4.35406 21.0991L5.39456 20.5779L4.68122 21.7523L4.80835 22.0061L6.26927 21.2744L6.14214 21.0206L5.10564 21.5397L5.816 20.3694ZM6.51299 22.1895L6.88292 22.703L7.26898 22.5881L7.4415 22.8276L5.75502 23.2818L5.6061 23.0751L6.57044 21.6184L6.74359 21.8588L6.51299 22.1895ZM6.65059 22.7722L6.37382 22.388L5.96225 22.9763L6.65059 22.7722ZM8.0142 23.2481L7.80909 23.0534L6.68442 24.2387L6.88956 24.4333L8.0142 23.2481ZM9.39272 24.3922L8.38273 25.6766L8.00342 25.3783C7.88992 25.289 7.80924 25.1846 7.7614 25.0652C7.71298 24.9452 7.70117 24.8198 7.72601 24.689C7.75087 24.5582 7.81047 24.4328 7.9048 24.3128L7.95544 24.2484C8.05118 24.1267 8.15975 24.0388 8.28116 23.9849C8.40198 23.9305 8.52705 23.9137 8.65632 23.9345C8.78502 23.9547 8.9073 24.0105 9.02315 24.1016L9.39272 24.3922ZM8.30106 25.3211L9.02945 24.3949L8.8839 24.2804C8.76687 24.1884 8.64851 24.1544 8.52885 24.1782C8.40811 24.2023 8.29328 24.2823 8.18435 24.4184L8.12817 24.4899C8.01856 24.6292 7.96513 24.7595 7.9679 24.8806C7.97067 25.0018 8.02966 25.1077 8.14494 25.1983L8.30106 25.3211ZM10.0273 26.6172L10.2746 26.7566L11.0765 25.3331L10.8312 25.1948L10.26 26.2087L10.1946 24.8362L9.94728 24.6969L9.14535 26.1204L9.39272 26.2599L9.96167 25.2498L10.0273 26.6172ZM11.0091 27.0429L11.2724 27.1458L11.8676 25.6241L11.6042 25.5211L11.0091 27.0429ZM16.1849 4.77152L16.856 4.76998L16.8555 4.54553L16.1844 4.5471L16.1833 4.09597L16.9599 4.09417L16.9594 3.86523L15.8989 3.86771L15.9027 5.5016L16.971 5.49912L16.9705 5.27243L16.1861 5.27426L16.1849 4.77152ZM18.9198 5.38332C18.8754 5.55266 18.7899 5.67663 18.6633 5.75519C18.5368 5.83301 18.3816 5.85686 18.1978 5.82672C18.0694 5.80567 17.961 5.75683 17.8727 5.68018C17.7853 5.60293 17.7242 5.50384 17.6895 5.38293C17.6547 5.26198 17.6484 5.12714 17.6705 4.97838L17.6952 4.82777C17.7201 4.6757 17.769 4.54613 17.8419 4.43906C17.9148 4.33198 18.0066 4.25528 18.1173 4.209C18.2287 4.16283 18.3505 4.15055 18.4827 4.17223C18.6606 4.20137 18.7959 4.27322 18.8885 4.38771C18.9812 4.50223 19.022 4.64916 19.0108 4.8285L18.7317 4.78275C18.7374 4.66468 18.7171 4.57567 18.6708 4.51579C18.6254 4.45528 18.5503 4.41642 18.4455 4.39923C18.3236 4.37928 18.2225 4.40858 18.1422 4.48714C18.0627 4.56507 18.0081 4.68993 17.9785 4.8617L17.955 5.00455C17.9265 5.1788 17.9357 5.31677 17.9827 5.41847C18.0305 5.5203 18.1145 5.5811 18.2348 5.60081C18.3449 5.61883 18.4316 5.60766 18.4951 5.56728C18.5585 5.52688 18.6071 5.45031 18.6407 5.33756L18.9198 5.38332ZM20.1671 6.57717L20.4256 6.69179L21.0879 5.19815L20.8294 5.08353L20.5538 5.7052L19.8859 5.40904L20.1616 4.7874L19.9021 4.6723L19.2397 6.16594L19.4993 6.28101L19.7936 5.61729L20.4614 5.91343L20.1671 6.57717ZM22.0534 7.69132L21.8064 7.55131L21.7444 6.1837L21.1728 7.19221L20.9258 7.0522L21.7315 5.63074L21.9785 5.77073L22.0402 7.14334L22.614 6.13095L22.8591 6.26983L22.0534 7.69132ZM22.357 8.07261L22.5592 8.27024L23.7011 7.10158L23.4988 6.90396L22.357 8.07261ZM24.1806 9.26553C24.0311 9.35664 23.8835 9.38655 23.7378 9.35529C23.5928 9.32356 23.4645 9.23309 23.353 9.08383C23.2752 8.97953 23.231 8.86916 23.2206 8.75273C23.2113 8.63646 23.2361 8.52273 23.295 8.41152C23.3538 8.30032 23.4428 8.19883 23.562 8.10706L23.6843 8.01573C23.8077 7.92351 23.9329 7.86415 24.0597 7.83764C24.1865 7.81111 24.3058 7.8196 24.4176 7.86306C24.5299 7.90714 24.6261 7.98283 24.7062 8.09011C24.8141 8.23456 24.8617 8.38018 24.8489 8.52693C24.8362 8.67368 24.7636 8.80776 24.6311 8.92912L24.4619 8.70254C24.5479 8.62147 24.5951 8.54331 24.6033 8.46807C24.6126 8.39298 24.5854 8.31288 24.5219 8.22777C24.448 8.12884 24.3549 8.07982 24.2425 8.08063C24.1312 8.0816 24.0053 8.13362 23.8647 8.23673L23.7487 8.32336C23.6072 8.429 23.5182 8.53474 23.4814 8.64059C23.4451 8.74707 23.4635 8.84915 23.5365 8.94685C23.6031 9.03617 23.6734 9.0883 23.7471 9.10326C23.8209 9.11823 23.9089 9.09679 24.0114 9.03894L24.1806 9.26553ZM24.6746 10.1069L24.9787 10.662L24.7093 10.9619L24.8517 11.2217L25.9874 9.89427L25.865 9.67088L24.1355 9.91478L24.2774 10.1736L24.6746 10.1069ZM25.1412 10.4821L24.9137 10.0668L25.6219 9.94873L25.1412 10.4821ZM25.3528 11.8376L25.5674 12.5476L25.3504 12.6132L25.0536 11.6314L26.6175 11.1587L26.6998 11.4304L25.3528 11.8376ZM26.5243 14.2808L26.5371 14.9518L26.7614 14.9475L26.7486 14.2765L27.1996 14.2679L27.2145 15.0443L27.4433 15.04L27.4229 13.9797L25.7895 14.0109L25.8099 15.079L26.0365 15.0747L26.0215 14.2904L26.5243 14.2808ZM25.8156 15.7345L27.4491 15.7033L27.4585 16.1858C27.4611 16.3302 27.4316 16.4587 27.3691 16.5714C27.307 16.6848 27.2174 16.7733 27.1004 16.8369C26.9834 16.9005 26.8486 16.9337 26.6961 16.9367L26.6141 16.9382C26.4592 16.9412 26.3227 16.9127 26.2038 16.8529C26.0853 16.7938 25.9932 16.7076 25.9274 16.5944C25.8617 16.4819 25.8274 16.352 25.8245 16.2047L25.8156 15.7345ZM27.2258 15.9916L26.0476 16.0141L26.0512 16.1992C26.054 16.3481 26.1026 16.4612 26.1968 16.5388C26.2918 16.617 26.4266 16.6552 26.6008 16.6534L26.6917 16.6516C26.869 16.6483 27.0038 16.6071 27.0957 16.5283C27.1876 16.4495 27.2323 16.3368 27.2294 16.1902L27.2258 15.9916ZM26.1278 18.8973L27.2166 18.9769L27.2373 18.6949L26.1563 18.6159C25.9264 18.5991 25.8195 18.4817 25.8354 18.2638C25.8433 18.1564 25.8779 18.0772 25.9394 18.0261C26.0009 17.9751 26.0861 17.9536 26.195 17.9616L27.285 18.0413L27.3057 17.7593L26.2179 17.6797C26.0411 17.6668 25.8987 17.7115 25.7907 17.8139C25.6834 17.9163 25.623 18.0608 25.6093 18.2473C25.5958 18.4316 25.6354 18.5827 25.7281 18.7004C25.8214 18.819 25.9547 18.8847 26.1278 18.8973ZM25.3192 20.6768C25.1617 20.6003 25.0567 20.4923 25.0043 20.3529C24.9525 20.2137 24.9593 20.0569 25.0246 19.8824C25.0702 19.7605 25.1392 19.6637 25.2315 19.592C25.3243 19.5213 25.4334 19.4806 25.5588 19.47C25.6841 19.4594 25.8176 19.4794 25.9593 19.5301L26.1022 19.5835C26.2464 19.6376 26.3642 19.7107 26.4551 19.803C26.546 19.8954 26.6031 20.0003 26.6272 20.1179C26.6507 20.2362 26.6392 20.358 26.5922 20.4834C26.529 20.6523 26.4321 20.771 26.3018 20.8397C26.1714 20.9083 26.0195 20.9197 25.8457 20.8739L25.9449 20.609C26.0596 20.6376 26.1508 20.635 26.2185 20.6012C26.2869 20.5684 26.3394 20.5023 26.3767 20.4028C26.4201 20.2872 26.4109 20.1824 26.3496 20.0883C26.2884 19.9951 26.1767 19.9173 26.0138 19.8548L25.8783 19.8041C25.7129 19.7422 25.5758 19.7244 25.4669 19.7508C25.3577 19.7778 25.2817 19.8484 25.239 19.9626C25.1999 20.067 25.194 20.1543 25.2213 20.2244C25.2486 20.2945 25.3143 20.357 25.4183 20.412L25.3192 20.6768ZM24.5809 21.3977L24.2611 21.9438L23.8653 21.8669L23.7156 22.1225L25.438 22.4145L25.5668 22.1947L24.4687 20.8365L24.3195 21.0912L24.5809 21.3977ZM24.4989 21.9908L24.7382 21.5821L25.2034 22.1289L24.4989 21.9908ZM23.65 24.2602L23.9911 23.8818L22.9473 22.9413L23.1359 22.732L24.1796 23.6725L24.5177 23.2974L24.6877 23.4506L23.8201 24.4135L23.65 24.2602ZM22.3255 23.5752L22.1184 23.7678L23.2315 24.964L23.4385 24.7714L22.3255 23.5752ZM21.0058 25.5673C20.8968 25.4501 20.8212 25.3283 20.7792 25.2018C20.7377 25.0759 20.7325 24.954 20.7638 24.836C20.795 24.7191 20.8596 24.615 20.9577 24.5238C21.0546 24.4336 21.163 24.3767 21.283 24.3529C21.4029 24.3302 21.5245 24.3434 21.6476 24.3922C21.7702 24.4417 21.8851 24.5233 21.9921 24.6373L22.0548 24.7047C22.1634 24.8213 22.2386 24.9434 22.2806 25.0709C22.3221 25.1989 22.3272 25.3214 22.296 25.4383C22.2647 25.5563 22.2004 25.6606 22.1029 25.7513C22.0054 25.842 21.8972 25.8988 21.7784 25.9215C21.6594 25.9452 21.5384 25.9322 21.4153 25.8822C21.2927 25.8328 21.1768 25.75 21.0677 25.6339L21.0058 25.5673ZM21.2718 25.4363C21.3951 25.5689 21.5148 25.6471 21.631 25.6708C21.7465 25.6951 21.8503 25.6644 21.9424 25.5788C22.0322 25.4952 22.0697 25.3944 22.0549 25.2764C22.04 25.1594 21.9733 25.036 21.8546 24.9063L21.7904 24.8373C21.6681 24.7058 21.5481 24.6279 21.4304 24.6036C21.3122 24.5797 21.2076 24.6101 21.1166 24.6947C21.0246 24.7803 20.9866 24.8811 21.0025 24.9971C21.0179 25.1136 21.0883 25.2392 21.2137 25.3739L21.2718 25.4363ZM19.0523 25.4671L18.7867 25.5675L19.364 27.0959L19.6276 26.9964L19.2163 25.9078L20.311 26.7383L20.5766 26.6381L19.9992 25.1094L19.7336 25.2098L20.1432 26.2941L19.0523 25.4671Z" fill="#090246"/>
<path d="M41 25.7236V4.30762H45.541V25.7236H41Z" fill="#090246"/>
<path d="M63.5732 19.7764C63.5732 21.71 62.875 23.2334 61.4785 24.3467C60.0918 25.46 58.1582 26.0166 55.6777 26.0166C53.3926 26.0166 51.3711 25.5869 49.6133 24.7275V20.5088C51.0586 21.1533 52.2793 21.6074 53.2754 21.8711C54.2812 22.1348 55.1992 22.2666 56.0293 22.2666C57.0254 22.2666 57.7871 22.0762 58.3145 21.6953C58.8516 21.3145 59.1201 20.748 59.1201 19.9961C59.1201 19.5762 59.0029 19.2051 58.7686 18.8828C58.5342 18.5508 58.1875 18.2334 57.7285 17.9307C57.2793 17.6279 56.3564 17.1445 54.96 16.4805C53.6514 15.8652 52.6699 15.2744 52.0156 14.708C51.3613 14.1416 50.8389 13.4824 50.4482 12.7305C50.0576 11.9785 49.8623 11.0996 49.8623 10.0938C49.8623 8.19922 50.502 6.70996 51.7812 5.62598C53.0703 4.54199 54.8477 4 57.1133 4C58.2266 4 59.2861 4.13184 60.292 4.39551C61.3076 4.65918 62.3672 5.03027 63.4707 5.50879L62.0059 9.03906C60.8633 8.57031 59.916 8.24316 59.1641 8.05762C58.4219 7.87207 57.6895 7.7793 56.9668 7.7793C56.1074 7.7793 55.4482 7.97949 54.9893 8.37988C54.5303 8.78027 54.3008 9.30273 54.3008 9.94727C54.3008 10.3477 54.3936 10.6992 54.5791 11.002C54.7646 11.2949 55.0576 11.583 55.458 11.8662C55.8682 12.1396 56.8301 12.6377 58.3438 13.3604C60.3457 14.3174 61.7178 15.2793 62.46 16.2461C63.2021 17.2031 63.5732 18.3799 63.5732 19.7764Z" fill="#090246"/>
<path d="M75.7168 25.7236H71.1758V8.08691H65.3604V4.30762H81.5322V8.08691H75.7168V25.7236Z" fill="#090246"/>
<path d="M97.1621 25.7236H84.8281V4.30762H97.1621V8.02832H89.3691V12.7305H96.6201V16.4512H89.3691V21.9736H97.1621V25.7236Z" fill="#090246"/>
<path d="M122.079 19.7764C122.079 21.71 121.381 23.2334 119.984 24.3467C118.598 25.46 116.664 26.0166 114.184 26.0166C111.898 26.0166 109.877 25.5869 108.119 24.7275V20.5088C109.564 21.1533 110.785 21.6074 111.781 21.8711C112.787 22.1348 113.705 22.2666 114.535 22.2666C115.531 22.2666 116.293 22.0762 116.82 21.6953C117.357 21.3145 117.626 20.748 117.626 19.9961C117.626 19.5762 117.509 19.2051 117.274 18.8828C117.04 18.5508 116.693 18.2334 116.234 17.9307C115.785 17.6279 114.862 17.1445 113.466 16.4805C112.157 15.8652 111.176 15.2744 110.521 14.708C109.867 14.1416 109.345 13.4824 108.954 12.7305C108.563 11.9785 108.368 11.0996 108.368 10.0938C108.368 8.19922 109.008 6.70996 110.287 5.62598C111.576 4.54199 113.354 4 115.619 4C116.732 4 117.792 4.13184 118.798 4.39551C119.813 4.65918 120.873 5.03027 121.977 5.50879L120.512 9.03906C119.369 8.57031 118.422 8.24316 117.67 8.05762C116.928 7.87207 116.195 7.7793 115.473 7.7793C114.613 7.7793 113.954 7.97949 113.495 8.37988C113.036 8.78027 112.807 9.30273 112.807 9.94727C112.807 10.3477 112.899 10.6992 113.085 11.002C113.271 11.2949 113.563 11.583 113.964 11.8662C114.374 12.1396 115.336 12.6377 116.85 13.3604C118.852 14.3174 120.224 15.2793 120.966 16.2461C121.708 17.2031 122.079 18.3799 122.079 19.7764Z" fill="#090246"/>
<path d="M135.058 7.7793C133.349 7.7793 132.025 8.42383 131.088 9.71289C130.15 10.9922 129.682 12.7793 129.682 15.0742C129.682 19.8496 131.474 22.2373 135.058 22.2373C136.562 22.2373 138.383 21.8613 140.521 21.1094V24.918C138.764 25.6504 136.801 26.0166 134.633 26.0166C131.518 26.0166 129.135 25.0742 127.484 23.1895C125.834 21.2949 125.009 18.5801 125.009 15.0449C125.009 12.8184 125.414 10.8701 126.225 9.2002C127.035 7.52051 128.197 6.23633 129.711 5.34766C131.234 4.44922 133.017 4 135.058 4C137.138 4 139.228 4.50293 141.327 5.50879L139.862 9.2002C139.062 8.81934 138.256 8.4873 137.445 8.2041C136.635 7.9209 135.839 7.7793 135.058 7.7793Z" fill="#090246"/>
<path d="M161.981 7.7793C160.272 7.7793 158.949 8.42383 158.012 9.71289C157.074 10.9922 156.605 12.7793 156.605 15.0742C156.605 19.8496 158.397 22.2373 161.981 22.2373C163.485 22.2373 165.307 21.8613 167.445 21.1094V24.918C165.688 25.6504 163.725 26.0166 161.557 26.0166C158.441 26.0166 156.059 25.0742 154.408 23.1895C152.758 21.2949 151.933 18.5801 151.933 15.0449C151.933 12.8184 152.338 10.8701 153.148 9.2002C153.959 7.52051 155.121 6.23633 156.635 5.34766C158.158 4.44922 159.94 4 161.981 4C164.062 4 166.151 4.50293 168.251 5.50879L166.786 9.2002C165.985 8.81934 165.18 8.4873 164.369 8.2041C163.559 7.9209 162.763 7.7793 161.981 7.7793Z" fill="#090246"/>
<path d="M184.35 25.7236H172.016V4.30762H184.35V8.02832H176.557V12.7305H183.808V16.4512H176.557V21.9736H184.35V25.7236Z" fill="#090246"/>
<path d="M197.094 25.7236H192.553V8.08691H186.737V4.30762H202.909V8.08691H197.094V25.7236Z" fill="#090246"/>
</svg>
